<svg xmlns="http://www.w3.org/2000/svg" viewBox="0 0 120 120" width="120" height="120">
  <defs>
    <linearGradient id="typelessGrad" x1="0%" y1="0%" x2="100%" y2="100%">
      <stop offset="0%" style="stop-color:#F59E0B"/>
      <stop offset="100%" style="stop-color:#10B981"/>
    </linearGradient>
  </defs>
  <!-- 背景 -->
  <rect width="120" height="120" rx="24" fill="url(#typelessGrad)"/>
  <!-- 麦克风图标 -->
  <g transform="translate(30, 25) scale(1.2)">
    <path d="M30 20 C20 20 12 28 12 38 C12 48 20 56 30 56 C40 56 48 48 48 38 C48 28 40 20 30 20 Z" fill="white" opacity="0.95"/>
    <rect x="42" y="12" width="8" height="20" rx="2" fill="white" opacity="0.95"/>
    <rect x="54" y="8" width="6" height="28" rx="3" fill="white" opacity="0.95"/>
    <!-- 声波 -->
    <path d="M68 30 Q75 30 75 38 Q75 46 68 46" stroke="white" stroke-width="3" fill="none" opacity="0.9"/>
    <path d="M73 22 Q82 22 82 38 Q82 54 73 54" stroke="white" stroke-width="3" fill="none" opacity="0.9"/>
  </g>
  <!-- T字母 -->
  <text x="60" y="108" font-family="'Montserrat', Arial, sans-serif" font-size="28" font-weight="800" fill="white" text-anchor="middle">T</text>
</svg>
